<?xml version="1.0" standalone="no"?>
<!DOCTYPE svg PUBLIC "-//W3C//DTD SVG 20010904//EN"
 "http://www.w3.org/TR/2001/REC-SVG-20010904/DTD/svg10.dtd">
<svg version="1.0" xmlns="http://www.w3.org/2000/svg"
 width="148.000000pt" height="100.000000pt" viewBox="0 0 148.000000 100.000000"
 preserveAspectRatio="xMidYMid meet">

<g transform="translate(0.000000,100.000000) scale(0.100000,-0.100000)"
fill="#ff0001" stroke="none">
<path d="M70 775 l0 -105 468 -2 467 -3 0 -35 0 -35 -217 -3 -218 -2 0 -105 0
-105 300 0 301 0 24 25 c25 24 25 25 25 219 0 107 -3 202 -6 211 -17 44 -33
45 -604 45 l-540 0 0 -105z"/>
<path d="M280 340 l0 -250 565 0 565 0 0 105 0 105 -167 0 c-93 0 -300 3 -460
7 l-293 6 0 139 0 138 -105 0 -105 0 0 -250z"/>
</g>
</svg>
