<?xml version="1.0" standalone="no"?>
<!DOCTYPE svg PUBLIC "-//W3C//DTD SVG 20010904//EN"
 "http://www.w3.org/TR/2001/REC-SVG-20010904/DTD/svg10.dtd">
<svg version="1.0" xmlns="http://www.w3.org/2000/svg"
 width="800.000000pt" height="100.000000pt" viewBox="0 0 800.000000 100.000000"
 preserveAspectRatio="xMidYMid meet">
<metadata>
Created by potrace 1.16, written by Peter Selinger 2001-2019
</metadata>
<g transform="translate(0.000000,100.000000) scale(0.053872,-0.060976)"
fill="#000000" stroke="none">
<path d="M222 808 l3 -583 178 -3 177 -2 0 470 0 471 410 -3 409 -3 23 -23
c20 -20 23 -34 26 -121 4 -92 2 -99 -21 -127 l-25 -29 -321 -3 c-177 -2 -321
-5 -321 -8 0 -3 44 -55 97 -115 l97 -111 276 4 c257 4 279 5 331 26 85 34 133
73 163 133 25 51 26 60 26 219 0 208 -11 251 -76 309 -90 79 -57 75 -797 79
l-657 3 2 -583z"/>
<path d="M2230 1152 c0 -131 3 -395 7 -585 l6 -347 174 0 173 0 0 470 0 471
411 -3 411 -3 24 -28 c22 -26 24 -37 24 -125 0 -155 21 -146 -373 -152 l-321
-5 270 -307 269 -307 229 0 228 -1 -181 186 c-100 103 -181 189 -181 193 0 4
34 12 76 18 137 20 250 94 274 183 13 47 13 355 -1 404 -15 56 -80 121 -147
148 l-57 23 -657 3 -658 3 0 -239z"/>
<path d="M4498 1374 c-113 -27 -188 -80 -224 -159 -24 -50 -24 -53 -23 -405 0
-382 1 -395 54 -463 33 -44 145 -102 224 -117 75 -14 1210 -13 1285 1 125 23
243 106 265 185 7 25 11 174 11 399 0 408 0 407 -79 478 -50 45 -108 72 -187
86 -93 17 -1253 13 -1326 -5z m1232 -569 l0 -275 -560 0 -560 0 0 275 0 275
560 0 560 0 0 -275z"/>
<path d="M6570 805 l0 -585 730 0 731 0 -3 153 -3 152 -547 3 -548 2 0 430 0
430 -180 0 -180 0 0 -585z"/>
<path d="M8764 1375 c-122 -26 -212 -98 -239 -189 -19 -63 -22 -680 -4 -751
24 -94 125 -173 258 -201 84 -17 1202 -21 1296 -3 119 22 215 83 258 163 22
40 22 49 22 411 0 412 0 409 -70 480 -45 44 -98 71 -177 90 -87 20 -1250 21
-1344 0z m1236 -570 l0 -275 -565 0 -565 0 0 275 0 275 565 0 565 0 0 -275z"/>
<path d="M11107 1379 c-111 -22 -202 -84 -244 -167 -16 -34 -18 -68 -18 -407
0 -360 1 -371 22 -410 44 -82 125 -136 242 -161 97 -20 1215 -20 1312 0 114
25 200 81 242 160 22 40 22 49 22 411 0 331 -2 374 -17 407 -23 47 -77 102
-128 128 -94 48 -125 50 -775 49 -335 -1 -632 -5 -658 -10z m1223 -574 l0
-275 -565 0 -565 0 0 275 0 275 565 0 565 0 0 -275z"/>
<path d="M13170 820 c0 -313 3 -577 6 -585 5 -13 35 -15 180 -15 l174 0 0 585
0 585 -180 0 -180 0 0 -570z"/>
<path d="M13973 1108 l-273 -273 275 -312 276 -313 227 0 227 0 -81 83 c-370
379 -517 539 -508 552 5 7 128 123 274 257 146 135 271 252 279 261 12 16 -3
17 -205 17 l-218 0 -273 -272z"/>
</g>
</svg>
