<?xml version="1.0" standalone="no"?>
<!DOCTYPE svg PUBLIC "-//W3C//DTD SVG 20010904//EN"
 "http://www.w3.org/TR/2001/REC-SVG-20010904/DTD/svg10.dtd">
<svg version="1.0" xmlns="http://www.w3.org/2000/svg"
 width="1534.000000pt" height="908.000000pt" viewBox="0 0 1534.000000 908.000000"
 preserveAspectRatio="xMidYMid meet">
<metadata>
Created by potrace 1.16, written by Peter Selinger 2001-2019
</metadata>
<g transform="translate(0.000000,908.000000) scale(0.100000,-0.100000)"
fill="#000000" stroke="none">
<path d="M3770 7585 l0 -645 2665 0 2665 0 0 -210 0 -210 -1240 0 -1240 0 0
-645 0 -645 1658 3 c1564 2 1660 4 1717 21 152 46 255 140 307 283 21 57 22
77 30 863 5 443 7 940 5 1105 -4 347 -10 380 -96 501 -74 105 -179 175 -312
208 -60 15 -330 16 -3112 16 l-3047 0 0 -645z" fill="#ff0001"/>
<path d="M4930 5020 l0 -1500 3220 0 3220 0 0 640 0 640 -70 1 c-38 1 -79 3
-90 4 -11 1 -1154 3 -2540 4 l-2520 1 0 855 0 855 -610 0 -610 0 0 -1500z" fill="#ff0001"/>
<path d="M1375 1980 c-3 -5 -5 -239 -4 -520 l1 -510 159 0 159 0 0 415 0 415
333 0 c333 0 392 -5 418 -36 20 -24 16 -192 -5 -213 -14 -14 -57 -17 -307 -21
l-291 -5 88 -102 89 -102 215 0 c237 -1 308 9 386 55 97 57 116 111 108 313
-6 159 -16 197 -64 243 -39 37 -71 50 -170 68 -65 12 -1107 12 -1115 0z"/>
<path d="M3150 1470 l0 -520 160 0 160 0 0 415 0 415 333 0 c330 0 392 -5 417
-35 13 -16 17 -158 5 -195 -4 -12 -18 -25 -32 -31 -13 -5 -148 -9 -299 -9
-151 0 -274 -3 -274 -6 0 -3 6 -11 13 -18 6 -7 39 -44 73 -82 253 -286 314
-355 353 -400 l44 -51 161 -1 c88 0 177 3 197 6 l37 7 -159 164 -159 165 85
17 c106 22 167 56 206 117 l30 47 -3 182 -3 181 -30 43 c-36 51 -98 84 -184
98 -38 6 -285 11 -597 11 l-534 0 0 -520z"/>
<path d="M5220 1980 c-146 -15 -255 -84 -278 -177 -4 -15 -7 -170 -7 -343 0
-311 0 -316 24 -363 13 -26 35 -56 50 -65 14 -9 32 -22 39 -29 13 -12 27 -16
35 -10 2 1 10 -3 18 -10 8 -7 30 -16 49 -20 19 -4 294 -8 610 -8 l575 0 60 24
c67 27 149 102 162 148 4 15 8 170 8 343 0 340 -1 351 -56 415 -29 33 -93 71
-134 79 -16 4 -41 9 -55 13 -34 8 -1018 11 -1100 3z m1021 -302 c0 -39 0 -343
0 -410 l-1 -48 -495 0 -495 0 0 245 0 245 495 0 495 0 1 -32z"/>
<path d="M6990 1470 l0 -520 644 0 645 0 -2 135 -1 135 -483 0 -483 0 0 23
c-1 12 -1 182 -1 379 0 266 -3 357 -12 361 -7 2 -78 5 -159 5 l-148 1 0 -519z"/>
<path d="M8982 1979 c-77 -10 -126 -25 -173 -55 -33 -21 -88 -77 -90 -92 0 -4
-4 -18 -7 -32 -4 -14 -7 -167 -7 -340 0 -311 0 -316 23 -360 37 -71 104 -117
203 -139 28 -7 255 -10 609 -8 l565 2 59 24 c32 13 76 39 98 59 74 67 73 59
73 417 0 351 -2 368 -58 428 -43 46 -75 65 -139 84 -45 13 -134 16 -573 18
-286 1 -548 -2 -583 -6z m1029 -281 c0 -7 1 -118 2 -245 l2 -233 -497 0 -498
0 0 245 0 245 495 0 c389 0 495 -3 496 -12z"/>
<path d="M11035 1978 c-135 -16 -240 -90 -264 -184 -14 -56 -13 -581 1 -649
14 -65 89 -141 169 -170 52 -19 79 -20 639 -20 l585 0 59 24 c32 13 76 39 98
59 75 67 73 58 73 422 l0 325 -25 50 c-15 29 -43 63 -68 82 -39 30 -64 40
-147 59 -43 10 -1037 12 -1120 2z m1040 -513 l0 -240 -495 0 -495 0 -3 243 -2
242 497 -2 498 -3 0 -240z"/>
<path d="M12825 1968 c-2 -7 -3 -240 -2 -518 l2 -505 150 -1 c83 0 155 1 161
3 8 3 11 88 9 301 -1 163 -3 395 -3 515 l-2 217 -155 0 c-116 0 -157 -3 -160
-12z"/>
<path d="M13895 1972 l-129 -3 -228 -227 c-126 -125 -233 -228 -238 -230 -6
-2 -10 -8 -10 -14 0 -8 143 -176 174 -203 6 -5 24 -26 40 -45 16 -19 59 -69
96 -110 37 -41 92 -103 121 -137 l54 -63 204 0 203 0 -189 198 c-105 108 -225
234 -267 278 l-76 82 42 36 c37 33 150 137 338 312 36 33 80 74 98 89 17 16
32 31 32 35 0 7 -36 7 -265 2z"/>
</g>
</svg>
